# xmcd
#
# Track frame offsets: 
#        150
#        7994
#        15148
#        27368
#        48524
#        60602
#        67484
#        81281
#        92578
#        110452
#
# Disc length: 1595 seconds
#
# Revision: 0
# Processed by: cddbd v1.5.2PL0 Copyright (c) Steve Scherf et al.
# Submitted via: ExactAudioCopy v1.0b3
#
DISCID=7706390a
DTITLE=Various Artist - Glory of Gospel
DYEAR=2003
DGENRE=Classical
TTITLE0=Oak Ridge Boys - River of Life
TTITLE1=The Hallelujah Singers - Mine Eyes Have Seen the Glory
TTITLE2=Oak Ridge Boys - Without God
TTITLE3=103rd Street Gospel Choir - Nobody Knows the Trouble I've Seen
TTITLE4=The Staple Singers - God's Wonderful
TTITLE5=Oak Ridge Boys - Each Step I Take
TTITLE6=The Blind Boys of Mississippi - A Worker of the Lord
TTITLE7=The Caravans - One of These Days
TTITLE8=The Gospel Gold Singers - My Father's Eyes
TTITLE9=Oak Ridge Boys - I Know My Savior is There
EXTD=
EXTT0=
EXTT1=
EXTT2=
EXTT3=
EXTT4=
EXTT5=
EXTT6=
EXTT7=
EXTT8=
EXTT9=
PLAYORDER=
